<svg width="111" height="53" viewBox="0 0 111 53" fill="none" xmlns="http://www.w3.org/2000/svg">
<g filter="url(#filter0_d_43_59)">
<path d="M0.524998 42L11.885 1.104H29.133L40.365 42H28.685L20.877 8.688H20.141L12.205 42H0.524998ZM11.245 33.136V24.304H29.581V33.136H11.245ZM46.605 42V3.376H58.221V42H46.605ZM35.629 10.736V1.104H69.165V10.736H35.629ZM85.467 42.928C83.5897 42.928 81.819 42.8107 80.155 42.576C78.491 42.3413 76.9657 42.0427 75.579 41.68C74.1923 41.296 72.9657 40.9013 71.899 40.496L70.907 30C72.6137 30.7253 74.6297 31.4187 76.955 32.08C79.2803 32.72 81.723 33.04 84.283 33.04C86.5657 33.04 88.155 32.8053 89.051 32.336C89.9683 31.8667 90.427 31.1093 90.427 30.064V29.936C90.427 29.232 90.203 28.656 89.755 28.208C89.3283 27.7387 88.603 27.3013 87.579 26.896C86.555 26.4693 85.179 25.9787 83.451 25.424C80.6563 24.528 78.299 23.5573 76.379 22.512C74.459 21.4453 73.0083 20.1227 72.027 18.544C71.0457 16.944 70.555 14.9067 70.555 12.432V11.952C70.555 8.13333 71.867 5.22133 74.491 3.216C77.1363 1.18933 80.987 0.175999 86.043 0.175999C89.0083 0.175999 91.5683 0.421332 93.723 0.911999C95.899 1.40267 97.7763 2 99.355 2.704L100.347 12.496C98.6403 11.728 96.7417 11.0987 94.651 10.608C92.5603 10.096 90.363 9.84 88.059 9.84C86.5443 9.84 85.3603 9.94667 84.507 10.16C83.675 10.352 83.099 10.6507 82.779 11.056C82.459 11.44 82.299 11.92 82.299 12.496V12.592C82.299 13.1893 82.491 13.7227 82.875 14.192C83.2803 14.64 84.0057 15.0987 85.051 15.568C86.0963 16.0373 87.5897 16.5813 89.531 17.2C92.3043 18.0747 94.6297 18.992 96.507 19.952C98.4057 20.912 99.835 22.1493 100.795 23.664C101.755 25.1573 102.235 27.184 102.235 29.744V30.192C102.235 34.4373 100.859 37.6267 98.107 39.76C95.355 41.872 91.1417 42.928 85.467 42.928Z" fill="white"/>
</g>
<defs>
<filter id="filter0_d_43_59" x="0.524998" y="0.175999" width="111.71" height="52.752" filterUnits="userSpaceOnUse" color-interpolation-filters="sRGB">
<feFlood flood-opacity="0" result="BackgroundImageFix"/>
<feColorMatrix in="SourceAlpha" type="matrix" values="0 0 0 0 0 0 0 0 0 0 0 0 0 0 0 0 0 0 127 0" result="hardAlpha"/>
<feOffset dx="10" dy="10"/>
<feComposite in2="hardAlpha" operator="out"/>
<feColorMatrix type="matrix" values="0 0 0 0 0.0149264 0 0 0 0 0.104275 0 0 0 0 0.120042 0 0 0 0.25 0"/>
<feBlend mode="normal" in2="BackgroundImageFix" result="effect1_dropShadow_43_59"/>
<feBlend mode="normal" in="SourceGraphic" in2="effect1_dropShadow_43_59" result="shape"/>
</filter>
</defs>
</svg>
