<svg width="154" height="74" viewBox="0 0 154 74" fill="none" xmlns="http://www.w3.org/2000/svg">
<g filter="url(#filter0_d_19_13)">
<path d="M17.1236 0H150L138.517 66H4L17.1236 0Z" fill="#137177"/>
</g>
<g filter="url(#filter1_d_19_13)">
<path d="M25.9 59.9C23.3667 59.9 21.5333 59.5 20.4 58.7C19.2667 57.9 18.6 57.0333 18.4 56.1C18.1333 55.1667 18 54.4667 18 54C18.0667 53.1333 18.4667 52.4333 19.2 51.9C19.8667 51.3667 20.6333 51.1 21.5 51.1C22.0333 51.1 22.5 51.2333 22.9 51.5C23.3 51.7 23.5 52.1667 23.5 52.9C23.5 53.5667 23.2667 54.0333 22.8 54.3C22.3333 54.5667 21.8333 54.7 21.3 54.7C20.8333 54.7 20.4333 54.6333 20.1 54.5C19.7 54.3667 19.5 54.3 19.5 54.3C19.5 56.1 20.1667 57.3 21.5 57.9C22.8333 58.5 24.3333 58.8 26 58.8C28.6 58.8 31.2667 58.0667 34 56.6C36.8 55.1333 39.6667 53.2 42.6 50.8C45.5333 48.3333 48.5333 45.6 51.6 42.6C54.7333 39.5333 57.9333 36.4667 61.2 33.4C64.7333 30.0667 68.2333 26.7667 71.7 23.5C75.2333 20.1667 78.6333 17.1667 81.9 14.5C85.1667 11.8333 88.2 9.7 91 8.1C93.8 6.5 96.3 5.7 98.5 5.7C99.2333 5.7 99.5333 5.83333 99.4 6.09999C99.3333 6.36666 98.8 6.56666 97.8 6.7C95.4667 7.1 92.9 8.16666 90.1 9.9C87.3667 11.5667 84.4667 13.7333 81.4 16.4C78.3333 19 75.1667 21.8667 71.9 25C68.7 28.0667 65.4333 31.1667 62.1 34.3C59.0333 37.2333 55.9333 40.2 52.8 43.2C49.7333 46.2 46.6667 48.9667 43.6 51.5C40.6 54.0333 37.6 56.0667 34.6 57.6C31.6667 59.1333 28.7667 59.9 25.9 59.9ZM56.7 55.4C56.3 55.5333 55.8333 55.6333 55.3 55.7C54.8333 55.7 54.7 55.5333 54.9 55.2C55.1 54.8667 55.4667 54.3 56 53.5C56.6 52.6333 57.1333 51.6 57.6 50.4C58.1333 49.2 58.4 47.9667 58.4 46.7C58.4 45.0333 58.1 43.1333 57.5 41C56.9667 38.8 56.0667 36.6667 54.8 34.6C53.6 32.5333 51.9667 30.8333 49.9 29.5C47.9 28.1 45.4333 27.4 42.5 27.4C40.5667 27.4 38.9 27.8667 37.5 28.8C36.1667 29.7333 35.1333 30.8667 34.4 32.2C33.7333 33.4667 33.4 34.7 33.4 35.9C33.4 38.5 34.1667 40.9667 35.7 43.3C37.3 45.6333 39.7 47.5333 42.9 49C46.1 50.4 50.0667 51.1 54.8 51.1C60 51.1 64.6667 50.2 68.8 48.4C72.9333 46.6 76.4 44.2667 79.2 41.4C82 38.5333 83.9667 35.5333 85.1 32.4C85.4333 31.4 85.7 31.0667 85.9 31.4C86.1667 31.6667 86.3 31.9333 86.3 32.2C86.3 34.4667 85.5333 36.7667 84 39.1C82.4667 41.4333 80.3 43.6 77.5 45.6C74.7 47.5333 71.4667 49.1 67.8 50.3C64.1333 51.5 60.1333 52.1 55.8 52.1C51.3333 52.1 47.2 51.4667 43.4 50.2C39.6667 48.9333 36.6333 47.0667 34.3 44.6C32.0333 42.1333 30.9 39.1667 30.9 35.7C30.9 33.3667 31.8667 31.2333 33.8 29.3C35.8 27.3 38.7 26.3 42.5 26.3C45.7 26.3 48.3667 27.0333 50.5 28.5C52.7 29.9667 54.4667 31.7667 55.8 33.9C57.1333 36.0333 58.1 38.1667 58.7 40.3C59.3 42.4333 59.6 44.2 59.6 45.6C59.6 47.1333 59.4 48.6667 59 50.2C58.6 51.6667 58.1667 52.9 57.7 53.9C57.3 54.8333 56.9667 55.3333 56.7 55.4ZM50.8 59.7C50.8667 59.6333 51.5333 58.8333 52.8 57.3C54.0667 55.7667 55.7333 53.7333 57.8 51.2C59.8667 48.6667 62.2 45.8333 64.8 42.7C67.4 39.5 70.1 36.2333 72.9 32.9C75.7 29.5667 78.4333 26.3333 81.1 23.2C83.8333 20 86.3333 17.1333 88.6 14.6C90.9333 12 92.8667 9.93333 94.4 8.4C96 6.86666 97.0333 6.06666 97.5 6C97.8333 5.86666 98.1333 5.86666 98.4 6C98.6667 6.13333 98.6 6.36667 98.2 6.7C97.9333 6.9 97 8 95.4 10C93.8 11.9333 91.7667 14.5 89.3 17.7C86.9 20.8333 84.2667 24.3 81.4 28.1C78.6 31.8333 75.8 35.5667 73 39.3C70.2 42.9667 67.6333 46.3667 65.3 49.5C63.0333 52.5667 61.1667 55.0333 59.7 56.9C58.3 58.7667 57.5667 59.7 57.5 59.7C57.2333 59.6333 56.7667 59.5667 56.1 59.5C55.5 59.4333 54.9 59.4 54.3 59.4C53.7 59.4 53 59.4333 52.2 59.5C51.4667 59.6333 51 59.7 50.8 59.7ZM108.549 14.8C109.149 15.0667 110.016 15.2 111.149 15.2C112.349 15.1333 113.283 15.0333 113.949 14.9C111.816 17.8333 109.449 21.0667 106.849 24.6C104.249 28.1333 101.616 31.6667 98.9492 35.2C96.3492 38.6667 93.9159 41.9333 91.6492 45C89.4492 48 87.6826 50.5333 86.3492 52.6C85.0159 54.6667 84.3492 55.9667 84.3492 56.5C84.3492 56.9 84.5826 57.2 85.0492 57.4C85.4492 57.6 85.9826 57.7 86.6492 57.7C88.1159 57.7 89.7159 57.2 91.4492 56.2C93.2492 55.1333 95.0159 53.8333 96.7492 52.3C98.5492 50.7 100.183 49.1 101.649 47.5C103.183 45.8333 104.383 44.4 105.249 43.2L106.049 43.8C105.116 45 103.883 46.4333 102.349 48.1C100.816 49.7667 99.1159 51.4333 97.2492 53.1C95.3826 54.7667 93.4492 56.1667 91.4492 57.3C89.5159 58.3667 87.6492 58.9 85.8492 58.9C84.5826 58.9 83.5826 58.6333 82.8492 58.1C82.0492 57.6333 81.6492 56.8 81.6492 55.6C81.6492 54.5333 82.2826 52.9 83.5492 50.7C84.8159 48.4333 86.4492 45.8333 88.4492 42.9C90.5159 39.9667 92.7492 36.8667 95.1492 33.6C97.5492 30.2667 99.9159 27 102.249 23.8C104.649 20.5333 106.749 17.5333 108.549 14.8ZM97.5492 26C96.8826 26 96.5492 25.8 96.5492 25.4C96.5492 25.0667 96.8826 24.9 97.5492 24.9H116.549C116.749 24.9 116.949 24.9333 117.149 25C117.416 25.0667 117.549 25.2 117.549 25.4C117.549 25.6667 117.416 25.8333 117.149 25.9C116.949 25.9667 116.749 26 116.549 26H97.5492ZM104.851 60.3C102.517 60.3 100.751 59.8667 99.5508 59C98.3508 58.1333 97.7508 56.9667 97.7508 55.5C97.7508 54.4333 98.1174 53.5 98.8508 52.7C99.5174 51.8333 100.317 51.1667 101.251 50.7C102.184 50.1667 102.917 49.9 103.451 49.9C104.184 49.9 104.684 50.0667 104.951 50.4C105.151 50.6667 105.251 50.9667 105.251 51.3C105.251 51.8333 104.951 52.2667 104.351 52.6C103.684 52.9333 103.151 53.1 102.751 53.1C102.284 53.1 101.884 52.9667 101.551 52.7C101.151 52.3667 100.951 52.2 100.951 52.2C100.617 52.2667 100.151 52.6333 99.5508 53.3C98.9508 53.9667 98.6508 54.7 98.6508 55.5C98.6508 56.3 99.0841 57.0667 99.9508 57.8C100.817 58.5333 102.217 58.9 104.151 58.9C106.151 58.9 108.051 58.2333 109.851 56.9C111.717 55.5667 113.251 53.8667 114.451 51.8C115.651 49.7333 116.251 47.6333 116.251 45.5C116.251 44.7667 116.251 43.8 116.251 42.6C116.251 41.3333 116.251 40.3 116.251 39.5C116.251 38.5 116.417 37.3667 116.751 36.1C117.084 34.7667 117.451 33.5333 117.851 32.4C118.317 31.2667 118.684 30.5667 118.951 30.3C119.484 29.8333 119.884 29.7 120.151 29.9C120.417 30.1 120.484 30.3 120.351 30.5C120.284 30.5667 119.851 31.1 119.051 32.1C118.251 33.0333 117.251 34.2 116.051 35.6C114.851 37 113.651 38.4 112.451 39.8C111.251 41.2 110.184 42.4333 109.251 43.5C108.384 44.5667 107.884 45.2 107.751 45.4C107.417 45.8667 107.117 45.9667 106.851 45.7C106.584 45.4333 106.651 45.1 107.051 44.7C107.784 43.7667 108.684 42.6667 109.751 41.4C110.884 40.0667 112.017 38.7667 113.151 37.5C114.284 36.2333 115.251 35.1667 116.051 34.3C116.917 33.3667 117.384 32.8333 117.451 32.7C117.651 32.4333 117.817 31.9667 117.951 31.3C118.151 30.6333 118.384 30 118.651 29.4C118.984 28.8 119.384 28.5 119.851 28.5C120.984 28.5 121.551 28.9 121.551 29.7C121.551 30.3 121.084 31.0333 120.151 31.9C119.284 32.7667 118.784 33.4667 118.651 34C118.451 34.8 118.451 35.9333 118.651 37.4C118.917 38.8 119.184 40.4 119.451 42.2C119.784 44 119.951 45.9 119.951 47.9C119.951 50.5667 119.417 52.7333 118.351 54.4C117.284 56 115.951 57.2333 114.351 58.1C112.751 58.9667 111.084 59.5333 109.351 59.8C107.684 60.1333 106.184 60.3 104.851 60.3ZM120.251 53.4C118.517 53.4 117.384 53.0667 116.851 52.4C116.384 51.7333 116.217 50.9667 116.351 50.1C116.551 49.1667 116.784 48.3333 117.051 47.6L118.051 47.7C117.851 48.3667 117.651 49.0667 117.451 49.8C117.317 50.5333 117.417 51.1667 117.751 51.7C118.084 52.2333 118.951 52.5 120.351 52.5C121.351 52.5 122.484 52.0333 123.751 51.1C125.017 50.1667 126.251 49.0333 127.451 47.7C128.717 46.3667 129.784 45.0667 130.651 43.8L131.551 44.5C130.684 45.5667 129.617 46.8 128.351 48.2C127.151 49.6 125.851 50.8333 124.451 51.9C123.051 52.9 121.651 53.4 120.251 53.4Z" fill="white"/>
</g>
<defs>
<filter id="filter0_d_19_13" x="0" y="0" width="154" height="74" filterUnits="userSpaceOnUse" color-interpolation-filters="sRGB">
<feFlood flood-opacity="0" result="BackgroundImageFix"/>
<feColorMatrix in="SourceAlpha" type="matrix" values="0 0 0 0 0 0 0 0 0 0 0 0 0 0 0 0 0 0 127 0" result="hardAlpha"/>
<feOffset dy="4"/>
<feGaussianBlur stdDeviation="2"/>
<feComposite in2="hardAlpha" operator="out"/>
<feColorMatrix type="matrix" values="0 0 0 0 0 0 0 0 0 0 0 0 0 0 0 0 0 0 0.25 0"/>
<feBlend mode="normal" in2="BackgroundImageFix" result="effect1_dropShadow_19_13"/>
<feBlend mode="normal" in="SourceGraphic" in2="effect1_dropShadow_19_13" result="shape"/>
</filter>
<filter id="filter1_d_19_13" x="18" y="5.7" width="121.551" height="62.6" filterUnits="userSpaceOnUse" color-interpolation-filters="sRGB">
<feFlood flood-opacity="0" result="BackgroundImageFix"/>
<feColorMatrix in="SourceAlpha" type="matrix" values="0 0 0 0 0 0 0 0 0 0 0 0 0 0 0 0 0 0 127 0" result="hardAlpha"/>
<feOffset dx="4" dy="4"/>
<feGaussianBlur stdDeviation="2"/>
<feComposite in2="hardAlpha" operator="out"/>
<feColorMatrix type="matrix" values="0 0 0 0 0 0 0 0 0 0 0 0 0 0 0 0 0 0 0.25 0"/>
<feBlend mode="normal" in2="BackgroundImageFix" result="effect1_dropShadow_19_13"/>
<feBlend mode="normal" in="SourceGraphic" in2="effect1_dropShadow_19_13" result="shape"/>
</filter>
</defs>
</svg>
